<?xml version="1.0" encoding="utf-8"?>
<!-- Generator: Adobe Illustrator 25.0.0, SVG Export Plug-In . SVG Version: 6.00 Build 0)  -->
<svg version="1.1" id="Livello_1" xmlns="http://www.w3.org/2000/svg" xmlns:xlink="http://www.w3.org/1999/xlink" x="0px" y="0px"
	 viewBox="0 0 1943.2 1586.8" style="enable-background:new 0 0 1943.2 1586.8;" xml:space="preserve">
<style type="text/css">
	.st0{clip-path:url(#SVGID_2_);}
	.st1{opacity:0.44;fill:url(#SVGID_3_);enable-background:new    ;}
	.st2{opacity:0.15;}
	.st3{fill:#FFFFFF;}
	.st4{fill:none;stroke:#FFFFFF;stroke-width:3;stroke-miterlimit:10;}
	.st5{fill:none;stroke:#FFFFFF;stroke-width:2;stroke-miterlimit:10;}
	.st6{opacity:0.44;fill:url(#SVGID_4_);enable-background:new    ;}
	.st7{opacity:0.21;fill:url(#SVGID_5_);enable-background:new    ;}
</style>
<g>
	<g id="Livello_1_1_">
		<g>
			<defs>
				<rect id="SVGID_1_" width="2252" height="1587.4"/>
			</defs>
			<clipPath id="SVGID_2_">
				<use xlink:href="#SVGID_1_"  style="overflow:visible;"/>
			</clipPath>
			<g class="st0">
				
					<linearGradient id="SVGID_3_" gradientUnits="userSpaceOnUse" x1="-531.08" y1="880.86" x2="1052.8401" y2="880.86" gradientTransform="matrix(1 0 0 -1 0 1586)">
					<stop  offset="0" style="stop-color:#CCE0F4"/>
					<stop  offset="6.000000e-02" style="stop-color:#C3DCF2"/>
					<stop  offset="0.17" style="stop-color:#A9D2EE"/>
					<stop  offset="0.31" style="stop-color:#80C2E7"/>
					<stop  offset="0.46" style="stop-color:#47ACDE"/>
					<stop  offset="0.57" style="stop-color:#1E9CD7"/>
					<stop  offset="0.87" style="stop-color:#0075BE"/>
					<stop  offset="0.99" style="stop-color:#005B97"/>
				</linearGradient>
				<circle class="st1" cx="260.9" cy="705.1" r="792"/>
				<g class="st2">
					<path class="st3" d="M263.5,659.2v4c26.9,0.1,48.6,21.9,48.6,48.8c-0.1,25.3-19.5,46.3-44.6,48.4c-1.3,0.1-2.7,0.2-4,0.2
						c-26.9-0.1-48.6-21.9-48.6-48.8c0.1-25.3,19.5-46.3,44.6-48.4c1.4-0.1,2.7-0.2,4-0.2L263.5,659.2 M263.5,659.2
						c-1.5,0-2.9,0.1-4.4,0.2c-29,2.4-50.6,27.9-48.2,56.9c2.3,27.3,25,48.3,52.4,48.4c1.5,0,2.9-0.1,4.4-0.2
						c29-2.4,50.6-27.9,48.2-56.9C313.6,680.2,290.9,659.2,263.5,659.2z"/>
					<line class="st4" x1="261.6" y1="661.4" x2="220.9" y2="165.8"/>
					<path class="st3" d="M263.5,663.2c26.9,0,48.7,21.8,48.7,48.7c0,26.9-21.8,48.7-48.7,48.7c-26.9,0-48.7-21.8-48.7-48.7
						c0-11.9,4.4-23.5,12.3-32.4C236.3,669.1,249.6,663.1,263.5,663.2L263.5,663.2 M263.5,659.2c-29.1,0-52.7,23.5-52.8,52.6
						c0,29.1,23.5,52.7,52.6,52.8s52.7-23.5,52.8-52.6c0-15.1-6.4-29.4-17.6-39.4C288.8,663.9,276.4,659.2,263.5,659.2z"/>
					<line class="st5" x1="299.6" y1="747.1" x2="750.5" y2="1129.6"/>
					<path class="st3" d="M263.5,659.2v4c26.9,0.1,48.6,21.9,48.6,48.8c-0.1,25.3-19.5,46.3-44.6,48.4c-1.3,0.1-2.7,0.2-4,0.2
						c-26.9-0.1-48.6-21.9-48.6-48.8c0.1-25.3,19.5-46.3,44.6-48.4c1.4-0.1,2.7-0.2,4-0.2L263.5,659.2 M263.5,659.2
						c-1.5,0-2.9,0.1-4.4,0.2c-29,2.4-50.6,27.9-48.2,56.9c2.3,27.3,25,48.3,52.4,48.4c1.5,0,2.9-0.1,4.4-0.2
						c29-2.4,50.6-27.9,48.2-56.9C313.6,680.2,290.9,659.2,263.5,659.2z"/>
					<line class="st4" x1="213" y1="713.7" x2="-134.1" y2="742.2"/>
				</g>
				
					<linearGradient id="SVGID_4_" gradientUnits="userSpaceOnUse" x1="586.72" y1="1519.6899" x2="1936.6001" y2="1519.6899" gradientTransform="matrix(1 0 0 -1 0 1586)">
					<stop  offset="0" style="stop-color:#CCE0F4"/>
					<stop  offset="6.000000e-02" style="stop-color:#C3DCF2"/>
					<stop  offset="0.17" style="stop-color:#A9D2EE"/>
					<stop  offset="0.31" style="stop-color:#80C2E7"/>
					<stop  offset="0.46" style="stop-color:#47ACDE"/>
					<stop  offset="0.57" style="stop-color:#1E9CD7"/>
					<stop  offset="0.87" style="stop-color:#0075BE"/>
					<stop  offset="0.99" style="stop-color:#005B97"/>
				</linearGradient>
				<circle class="st6" cx="1261.7" cy="66.3" r="674.9"/>
				
					<radialGradient id="SVGID_5_" cx="969.38" cy="865.38" r="851.47" gradientTransform="matrix(1 0 0 -1 0 1586)" gradientUnits="userSpaceOnUse">
					<stop  offset="0" style="stop-color:#CCE0F4"/>
					<stop  offset="0.1" style="stop-color:#C3DCF2"/>
					<stop  offset="0.27" style="stop-color:#A9D2EE"/>
					<stop  offset="0.49" style="stop-color:#80C2E7"/>
					<stop  offset="0.74" style="stop-color:#47ACDE"/>
					<stop  offset="0.91" style="stop-color:#1E9CD7"/>
					<stop  offset="0.99" style="stop-color:#005B97"/>
				</radialGradient>
				<circle class="st7" cx="969.4" cy="720.6" r="851.5"/>
			</g>
		</g>
	</g>
</g>
</svg>